<svg viewBox="0 0 1000 1000">
  <g transform="scale(9.615 9.615) translate(0 4)">
    <path d="M35.7193 0H6.84177C3.06374 0 0 3.06374 0 6.84177V64.6419C0 68.4199 3.06374 71.4836 6.84177 71.4836H97.1583C100.936 71.4836 104 68.4199 104 64.6419V35.7644C104 34.1242 103.354 32.5522 102.199 31.3969L72.6035 1.80119C71.4482 0.645787 69.8761 0 68.2359 0H59.7533C58.1123 0 56.542 0.645787 55.3866 1.80119L51.9945 5.19331C50.8391 6.34871 49.2671 6.9945 47.6269 6.9945H43.3412C41.7001 6.9945 40.1299 6.34871 38.9745 5.19331L35.7193 1.93823V0Z" />
  </g>
</svg>
