<svg width="20" height="20" viewBox="0 0 20 20" fill="none" xmlns="http://www.w3.org/2000/svg">
<path fill-rule="evenodd" clip-rule="evenodd" d="M16.5003 10.1109H13.5938V8.49609H16.5003V10.1109Z" fill="#EF5E37"/>
<path fill-rule="evenodd" clip-rule="evenodd" d="M6.58364 10.2456H4V8.63086H6.58364V10.2456Z" fill="#EF5E37"/>
<path fill-rule="evenodd" clip-rule="evenodd" d="M10.6001 3V5.9066H8.98535V3H10.6001Z" fill="#EF5E37"/>
<path fill-rule="evenodd" clip-rule="evenodd" d="M10.6001 13.5762V16.1598H8.98535V13.5762H10.6001Z" fill="#EF5E37"/>
<path fill-rule="evenodd" clip-rule="evenodd" d="M15.1342 5.67307L13.1965 7.6108L12.0547 6.46898L13.9924 4.53125L15.1342 5.67307Z" fill="#EF5E37"/>
<path fill-rule="evenodd" clip-rule="evenodd" d="M8.17267 12.5396L6.55789 14.4773L5.31738 13.4436L6.93216 11.5059L8.17267 12.5396Z" fill="#EF5E37"/>
<path fill-rule="evenodd" clip-rule="evenodd" d="M6.18674 4.66992L8.12447 6.60765L6.98265 7.74947L5.04492 5.81174L6.18674 4.66992Z" fill="#EF5E37"/>
<path fill-rule="evenodd" clip-rule="evenodd" d="M13.1965 11.3164L15.1342 13.2541L13.9924 14.396L12.0547 12.4582L13.1965 11.3164Z" fill="#EF5E37"/>
<circle cx="10.1363" cy="9.51911" r="1.91755" fill="#EF5E37"/>
</svg>
